<?xml version="1.0" encoding="utf-8"?>
<!-- Generator: Adobe Illustrator 26.0.1, SVG Export Plug-In . SVG Version: 6.00 Build 0)  -->
<svg version="1.1" id="Vrstva_1" xmlns="http://www.w3.org/2000/svg" xmlns:xlink="http://www.w3.org/1999/xlink" x="0px" y="0px"
	 viewBox="0 0 1920 1080" style="enable-background:new 0 0 1920 1080;" xml:space="preserve">
<style type="text/css">
	.st0{fill:#0071BC;}
	.st1{fill:#FFFFFF;}
</style>
<g>
	<g>
		<g>
			<g>
				<path fill="#161616" d="M350.1,725.29h-34.81c-1,0-1.75-0.92-1.54-1.9l8.88-41.31c3.03-14.26,4.54-20.31,12.53-50.34l4.54-16.85
					h-1.3c-4.54,8.64-9.07,17.5-13.61,26.36c-1.94,3.67-5.61,10.37-10.58,19.66c-3.67,6.48-7.13,12.96-10.8,19.66l-23.75,43.9
					c-0.27,0.51-0.8,0.82-1.38,0.82h-30.95c-0.79,0-1.46-0.59-1.56-1.38l-5.44-43.56c-2.81-21.82-4.54-36.08-5.19-42.56
					c-0.87-7.78-1.73-15.56-2.38-22.9h-1.3l-2.59,16.85c-4.75,30.25-6.05,38.46-8.43,50.34l-9.02,41.97
					c-0.16,0.72-0.8,1.24-1.54,1.24h-34.82c-1,0-1.74-0.92-1.54-1.9l30.01-140.97c0.15-0.72,0.79-1.24,1.54-1.24h57.61
					c0.8,0,1.47,0.6,1.56,1.39l4.59,39.88c1.73,16.85,1.95,17.07,3.24,36.94l0.86,12.31h1.51l5.83-12.31
					c8.64-17.93,9.94-20.74,18.36-36.73l21.38-40.64c0.27-0.52,0.81-0.84,1.39-0.84h58.69c1,0,1.74,0.92,1.54,1.9l-30.01,140.97
					C351.49,724.78,350.84,725.29,350.1,725.29z"/>
			</g>
			<g>
				<path fill="#161616" d="M410.35,701.33l-11.24,23.08c-0.26,0.54-0.81,0.88-1.41,0.88h-36.63c-1.17,0-1.93-1.24-1.4-2.29
					l72.28-140.97c0.27-0.52,0.81-0.85,1.4-0.85h56.16c0.81,0,1.49,0.62,1.56,1.43l12.89,140.97c0.08,0.92-0.64,1.71-1.56,1.71
					h-36.16c-0.81,0-1.49-0.62-1.56-1.43l-1.91-21.98c-0.07-0.81-0.75-1.43-1.56-1.43h-49.43
					C411.16,700.45,410.62,700.79,410.35,701.33z M453.62,615.04l-27.45,55.27c-0.52,1.04,0.24,2.27,1.41,2.27h31.64
					c0.91,0,1.63-0.78,1.57-1.69l-4.19-55.27C456.47,614.03,454.33,613.61,453.62,615.04z"/>
			</g>
			<g>
				<path fill="#161616" d="M544.68,582.43c0.15-0.72,0.79-1.24,1.54-1.24h71.32c15.99,0,25.06,1.3,31.11,4.32
					c8.43,4.32,13.18,12.31,13.18,22.25c0,14.48-6.7,39.1-12.96,47.97c-5.18,7.34-10.59,10.15-25.92,13.61l-0.22,1.51
					c14.04,0.65,21.17,7.13,21.17,19.01c0,2.81-0.21,5.19-1.08,9.07l-5.35,25.12c-0.15,0.72-0.79,1.24-1.54,1.24h-36.11
					c-1,0-1.74-0.92-1.54-1.9l3.69-17.28c0.01-0.03,0.01-0.06,0.02-0.09c0.43-2.8,0.86-5.8,0.86-8.16c0-7.56-3.89-10.8-12.97-10.8
					h-27.46c-0.74,0-1.38,0.52-1.54,1.24l-7.68,35.76c-0.16,0.72-0.8,1.24-1.54,1.24h-35.46c-1,0-1.74-0.92-1.54-1.9L544.68,582.43z
					 M598.74,654.43c9.72,0,14.26-2.81,16.85-10.59c1.73-5.19,4.32-17.07,4.32-20.31c0-7.34-3.03-9.29-14.48-9.29h-27.68
					c-0.74,0-1.38,0.52-1.54,1.25l-7.77,37.05c-0.2,0.98,0.54,1.89,1.54,1.89H598.74z"/>
			</g>
			<g>
				<path fill="#161616" d="M718.03,725.29h-35.46c-1,0-1.74-0.92-1.54-1.9l22.75-107.26c0.21-0.98-0.54-1.9-1.54-1.9H669.6
					c-1,0-1.75-0.92-1.53-1.9l6.45-29.92c0.16-0.72,0.8-1.24,1.53-1.24h110.86c1,0,1.75,0.92,1.53,1.9L782,613.01
					c-0.16,0.72-0.8,1.24-1.53,1.24h-36.35c-0.74,0-1.38,0.52-1.54,1.24l-23.02,108.56C719.41,724.78,718.77,725.29,718.03,725.29z"
					/>
			</g>
			<g>
				<path fill="#161616" d="M808.14,725.29h-35.46c-1,0-1.74-0.92-1.54-1.9l30.01-140.97c0.15-0.72,0.79-1.24,1.54-1.24h35.46
					c1,0,1.74,0.92,1.54,1.9l-30.01,140.97C809.52,724.78,808.88,725.29,808.14,725.29z"/>
			</g>
			<g>
				<path fill="#161616" d="M971.02,725.29h-62.86c-0.77,0-1.43-0.56-1.55-1.32l-9.51-59.39c-2.81-16.42-5.18-33.27-7.34-50.34h-1.73
					l-2.16,13.39c-3.24,19.66-3.89,23.12-7.56,39.97l-11.84,56.44c-0.15,0.73-0.79,1.25-1.54,1.25h-34.59c-1,0-1.74-0.92-1.54-1.9
					l30.01-140.97c0.15-0.72,0.79-1.24,1.54-1.24h62.43c0.77,0,1.43,0.56,1.55,1.32l9.72,59.4l3.89,24.41
					c1.3,8.21,2.38,16.21,3.46,24.42h1.51l2.16-12.96c3.24-19.88,3.67-21.39,7.34-38.89l11.84-56.44c0.15-0.73,0.79-1.25,1.54-1.25
					h35.24c1,0,1.74,0.92,1.54,1.9l-30.01,140.97C972.4,724.78,971.76,725.29,971.02,725.29z"/>
			</g>
			<g>
				<path fill="#161616" d="M1063.29,582.43c0.15-0.72,0.79-1.24,1.54-1.24h77.16c26.14,0,36.51,6.91,36.51,24.42
					c0,13.18-4.97,29.39-11.02,35.86c-4.97,5.4-12.96,9.29-21.39,10.37l-0.22,0.65c4.97,0.43,7.13,0.87,10.16,1.95
					c6.91,2.37,11.02,8.42,11.02,15.98s-2.16,18.58-5.19,28.09c-3.89,11.67-13.39,20.95-24.41,23.98c-6.7,1.73-15.77,2.81-25.5,2.81
					h-77.13c-1,0-1.74-0.92-1.54-1.9L1063.29,582.43z M1103.96,693.54c9.51,0,15.55-1.08,18.8-3.67c2.59-1.94,3.67-3.89,4.97-8.21
					c0.65-3.24,1.3-6.91,1.3-8.43c0-3.02-1.3-5.4-3.67-6.48c-1.73-0.87-1.73-0.87-12.75-1.3h-27.03c-0.74,0-1.39,0.52-1.54,1.25
					l-5.18,24.95c-0.2,0.97,0.54,1.89,1.54,1.89H1103.96z M1114.55,638.87c14.91-0.22,14.91-0.22,17.93-3.24
					c3.02-3.03,5.62-10.16,5.62-15.99c0-5.19-2.6-6.7-11.45-6.7h-29.85c-0.74,0-1.38,0.52-1.53,1.24l-4.94,22.78
					c-0.21,0.98,0.53,1.9,1.53,1.9H1114.55z"/>
			</g>
			<g>
				<path fill="#161616" d="M1209.39,701.33l-11.24,23.08c-0.26,0.54-0.81,0.88-1.41,0.88h-36.63c-1.17,0-1.93-1.24-1.4-2.29
					l72.28-140.97c0.27-0.52,0.81-0.85,1.4-0.85h56.16c0.81,0,1.49,0.62,1.56,1.43L1303,723.58c0.08,0.92-0.64,1.71-1.56,1.71
					h-36.16c-0.81,0-1.49-0.62-1.56-1.43l-1.91-21.98c-0.07-0.81-0.75-1.43-1.56-1.43h-49.43
					C1210.2,700.45,1209.65,700.79,1209.39,701.33z M1252.65,615.04l-27.45,55.27c-0.52,1.04,0.24,2.27,1.41,2.27h31.64
					c0.91,0,1.63-0.78,1.57-1.69l-4.19-55.27C1255.51,614.03,1253.36,613.61,1252.65,615.04z"/>
			</g>
			<g>
				<path fill="#161616" d="M1343.72,582.43c0.15-0.72,0.79-1.24,1.54-1.24h71.32c15.99,0,25.06,1.3,31.11,4.32
					c8.43,4.32,13.18,12.31,13.18,22.25c0,14.48-6.7,39.1-12.96,47.97c-5.18,7.34-10.59,10.15-25.92,13.61l-0.22,1.51
					c14.04,0.65,21.17,7.13,21.17,19.01c0,2.81-0.21,5.19-1.08,9.07l-5.35,25.12c-0.15,0.72-0.79,1.24-1.54,1.24h-36.11
					c-1,0-1.74-0.92-1.54-1.9l3.69-17.28c0.01-0.03,0.01-0.06,0.02-0.09c0.43-2.8,0.86-5.8,0.86-8.16c0-7.56-3.89-10.8-12.97-10.8
					h-27.46c-0.74,0-1.38,0.52-1.54,1.24l-7.68,35.76c-0.16,0.72-0.8,1.24-1.54,1.24h-35.46c-1,0-1.74-0.92-1.54-1.9L1343.72,582.43
					z M1397.78,654.43c9.72,0,14.26-2.81,16.85-10.59c1.73-5.19,4.32-17.07,4.32-20.31c0-7.34-3.03-9.29-14.48-9.29h-27.68
					c-0.74,0-1.38,0.52-1.54,1.25l-7.77,37.05c-0.2,0.98,0.54,1.89,1.54,1.89H1397.78z"/>
			</g>
			<g>
				<path fill="#161616" d="M1592.64,725.29h-62.86c-0.77,0-1.43-0.56-1.55-1.32l-9.51-59.39c-2.81-16.42-5.18-33.27-7.34-50.34h-1.73
					l-2.16,13.39c-3.24,19.66-3.89,23.12-7.56,39.97l-11.84,56.44c-0.15,0.73-0.79,1.25-1.54,1.25h-34.59c-1,0-1.74-0.92-1.54-1.9
					l30.01-140.97c0.15-0.72,0.79-1.24,1.54-1.24h62.43c0.77,0,1.43,0.56,1.55,1.32l9.72,59.4l3.89,24.41
					c1.3,8.21,2.38,16.21,3.46,24.42h1.51l2.16-12.96c3.24-19.88,3.67-21.39,7.34-38.89l11.84-56.44c0.15-0.73,0.79-1.25,1.54-1.25
					h35.24c1,0,1.74,0.92,1.54,1.9l-30.01,140.97C1594.02,724.78,1593.38,725.29,1592.64,725.29z"/>
			</g>
			<g>
				<path fill="#161616" d="M1652.89,701.33l-11.24,23.08c-0.26,0.54-0.81,0.88-1.41,0.88h-36.63c-1.17,0-1.93-1.24-1.4-2.29
					l72.28-140.97c0.27-0.52,0.81-0.85,1.4-0.85h56.16c0.81,0,1.49,0.62,1.56,1.43l12.89,140.97c0.08,0.92-0.64,1.71-1.56,1.71
					h-36.16c-0.81,0-1.49-0.62-1.56-1.43l-1.91-21.98c-0.07-0.81-0.75-1.43-1.56-1.43h-49.43
					C1653.7,700.45,1653.15,700.79,1652.89,701.33z M1696.15,615.04l-27.45,55.27c-0.52,1.04,0.24,2.27,1.41,2.27h31.64
					c0.91,0,1.63-0.78,1.57-1.69l-4.19-55.27C1699,614.03,1696.86,613.61,1696.15,615.04z"/>
			</g>
		</g>
		<g>
			<path fill="#ff7a00" d="M1358.34,300.32l-57.86,33.42c-3.34,1.93-3.68,6.63-0.65,9.02l40,31.54c1.66,1.31,2.42,3.46,1.94,5.52
				l-32.31,139.96c-0.57,2.48-2.78,4.23-5.32,4.23h-361.2c-3.51,0-6.11-3.27-5.32-6.69l70.75-306.43c0.79-3.42-1.81-6.69-5.32-6.69
				h-57.5c-1.55,0-3.03,0.66-4.06,1.81l-82.64,92.07c-2.66,2.96-7.48,2.18-9.07-1.47l-38.85-89.14c-0.87-1.99-2.83-3.28-5.01-3.28
				h-58.88c-2.54,0-4.75,1.76-5.32,4.23l-59.17,256.3c-0.79,3.42,1.81,6.69,5.32,6.69h194.5c3.51,0,6.11,3.27,5.32,6.69l-9.62,41.67
				c-0.57,2.48-2.78,4.23-5.32,4.23H623.12c-3.51,0-6.11-3.27-5.32-6.69l83.45-361.48c0.57-2.48,2.78-4.23,5.32-4.23h139.64
				c2.17,0,4.14,1.29,5.01,3.28l20.43,46.9c1.59,3.65,6.41,4.43,9.07,1.47l44.75-49.84c1.04-1.15,2.51-1.81,4.06-1.81h138.23
				c3.51,0,6.11,3.27,5.32,6.69l-70.74,306.4c-0.79,3.42,1.81,6.69,5.32,6.69h256.01c2.54,0,4.75-1.76,5.32-4.23l13.67-59.2
				c0.48-2.06-0.28-4.21-1.94-5.52L1205,342.76c-3.03-2.39-2.7-7.09,0.65-9.02l106.6-61.59c1.31-0.76,2.25-2.03,2.59-3.5l13.34-57.8
				c0.79-3.42-1.81-6.69-5.32-6.69h-194.5c-3.51,0-6.11-3.27-5.32-6.69l9.62-41.67c0.57-2.48,2.78-4.23,5.32-4.23h249.62
				c3.51,0,6.11,3.27,5.32,6.69l-31.99,138.56C1360.59,298.3,1359.65,299.57,1358.34,300.32z"/>
		</g>
	</g>
	<g>
		<path fill="#161616" d="M514.43,852.57c0,2.27-1.71,11.39-3.04,15.76c-2.03,7.1-3.9,8.5-11.31,8.5c-6.94,0-8.66-0.93-8.66-4.52
			c0-1.79,0.63-5.77,1.8-10.76c1.87-8.35,2.1-9.05,3.43-10.77c1.79-2.26,3.74-2.89,9.44-2.89
			C512.8,847.89,514.43,848.83,514.43,852.57z"/>
	</g>
	<g>
		<path fill="#161616" d="M1025.25,846.72l-11.23,22.63h12.95L1025.25,846.72z M1096.23,846.72L1085,869.35h12.95L1096.23,846.72z
			 M1096.23,846.72L1085,869.35h12.95L1096.23,846.72z M1025.25,846.72l-11.23,22.63h12.95L1025.25,846.72z M1025.25,846.72
			l-11.23,22.63h12.95L1025.25,846.72z M1096.23,846.72L1085,869.35h12.95L1096.23,846.72z M1096.23,846.72L1085,869.35h12.95
			L1096.23,846.72z M1025.25,846.72l-11.23,22.63h12.95L1025.25,846.72z M1025.25,846.72l-11.23,22.63h12.95L1025.25,846.72
			 M1096.23,846.72L1085,869.35h12.95L1096.23,846.72z M1096.23,846.72L1085,869.35h12.95L1096.23,846.72z M1025.25,846.72
			l-11.23,22.63h12.95L1025.25,846.72z M1025.25,846.72l-11.23,22.63h12.95L1025.25,846.72z M1096.23,846.72L1085,869.35h12.95
			L1096.23,846.72z M1096.23,846.72L1085,869.35h12.95L1096.23,846.72z M1025.25,846.72l-11.23,22.63h12.95L1025.25,846.72z
			 M458,789.43l-32,139h1041.09l26.91-134L458,789.43z M902.24,820.98l10.22,4.14l12.4-4.14l0.94,4.14l-15.05,7.95l-11.31-7.95
			L902.24,820.98z M873.23,820.75l0.7,8.5l-17.78,3.59l-0.39-4.76L873.23,820.75z M513.11,886.35c-3.82,1.72-8.66,2.42-16.69,2.42
			c-9.21,0-13.26-1.02-16.46-3.98c-2.34-2.26-3.43-5.15-3.43-9.13c0-4.52,3.27-19.73,5.46-25.66c2.26-5.77,5.38-9.13,10.99-11.7
			c3.9-1.72,8.12-2.34,16.54-2.34c6.94,0,10.3,0.47,13.11,1.79c4.52,2.19,6.63,5.7,6.63,11.24c0,4.36-3.28,20.28-5.23,25.35
			C521.69,880.42,518.41,884.09,513.11,886.35z M556.71,888.38l-3.51-21.92c-1.01-5.93-1.87-12.01-2.65-18.18h-0.63l-0.78,4.84
			c-1.17,7.1-1.4,8.35-2.73,14.43l-4.36,20.83H528.4l11.07-52.03h23.48l3.59,21.92l1.4,8.81c0.47,2.97,0.86,5.85,1.25,8.82h0.55
			l0.78-4.68c1.17-7.18,1.32-7.72,2.65-14.04l4.37-20.83h13.88l-11.08,52.03H556.71z M624.57,888.38h-35.8l11.07-52.03h13.96
			l-8.5,40.09h21.84L624.57,888.38z M629.4,888.38l11.08-52.03h13.96l-11.07,52.03H629.4z M680.1,888.38l-3.51-21.92
			c-1.01-5.93-1.87-12.01-2.65-18.18h-0.62l-0.78,4.84c-1.17,7.1-1.41,8.35-2.73,14.43l-4.37,20.83h-13.65l11.08-52.03h23.47
			l3.59,21.92l1.41,8.81c0.46,2.97,0.85,5.85,1.24,8.82h0.55l0.78-4.68c1.17-7.18,1.33-7.72,2.65-14.04l4.37-20.83h13.89
			l-11.08,52.03H680.1z M758.42,847.82h-23.64l-2.03,9.36h22.16l-2.03,9.59h-22.16l-2.1,10.14h24.1l-2.42,11.47h-38.14l11.08-52.03
			h37.59L758.42,847.82z M856.22,888.38h-13.96l3.82-18.1l-11.06-33.64l-26.14,51.74h-21.61l-3.66-52.03h14.11l1.49,20.05l0.7,9.98
			c0.08,1.25,0.15,1.8,0.55,10.06h0.38l2.34-4.99l2.42-5.07l5.07-9.98l10.07-20.05h14.19l0.09,0.29l0.15-0.29h15.67l2.58,9.98
			l1.24,5.07c0.24,0.78,0.24,0.94,1.17,5h0.47c1.02-1.56,2.26-3.36,3.43-5l3.51-5.07l6.95-9.98h16.07l-26.21,33.93L856.22,888.38z
			 M919.25,888.38h-42.51l2.49-11.78l30.5-28.08l0.08-0.47h-22.93l2.49-11.7h40.88l-2.42,11.62l-30.89,28.24l-0.08,0.47h24.89
			L919.25,888.38z M938.98,888.38h-13.96l11.08-52.03h13.96L938.98,888.38z M956.84,888.38l-3.66-52.03h14.12l1.48,20.05l0.7,9.98
			c0.08,1.25,0.16,1.8,0.55,10.06h0.39l2.34-4.99l2.42-5.07l5.06-9.98l10.07-20.05h14.43l-26.29,52.03H956.84z M1028.37,888.38
			l-0.78-8.97h-18.72l-4.37,8.97h-14.51l26.68-52.03h21.14l4.76,52.03H1028.37z M1099.35,888.38l-0.78-8.97h-18.72l-4.37,8.97
			h-14.51l26.68-52.03h21.14l4.76,52.03H1099.35z M1175.87,869.42h-21.14l-4.06,18.96h-13.96l11.08-52.03h36.81l-2.41,11.47h-22.86
			l-2.18,10.14h21.14L1175.87,869.42z M1193.34,888.38h-13.96l11.07-52.03h13.96L1193.34,888.38z M1223.45,888.38h-13.97l8.51-40.1
			h-13.19l2.58-11.93h41.18l-2.57,11.93h-14.04L1223.45,888.38z M1268.76,888.38l-3.5-21.92c-1.02-5.93-1.88-12.01-2.66-18.18h-0.62
			l-0.78,4.84c-1.17,7.1-1.41,8.35-2.73,14.43l-4.37,20.83h-13.65l11.08-52.03h23.48l3.58,21.92l1.41,8.81
			c0.47,2.97,0.86,5.85,1.25,8.82h0.54l0.78-4.68c1.17-7.18,1.33-7.72,2.65-14.04l4.37-20.83h13.89l-11.08,52.03H1268.76z
			 M1341.54,866.77h-22.15l-2.11,10.14h24.1l-2.42,11.47h-38.14l11.08-52.03h37.6l-2.42,11.47h-23.64l-2.03,9.36h22.16
			L1341.54,866.77z M1394.97,852.57h-13.26c0.39-1.56,0.47-2.18,0.47-2.96c0-2.34-1.56-3.04-6.63-3.04c-4.92,0-6.95,0.47-8.12,1.95
			c-0.93,1.09-1.56,3.12-1.56,4.91c0,2.26,0.71,2.66,6.17,2.97c12.48,0.93,12.55,0.93,15.67,1.95c3.67,1.25,5.54,3.82,5.54,7.64
			c0,1.95-0.78,6.4-1.79,9.75c-1.8,6.24-4.29,9.28-9.36,11.23c-3.43,1.33-7.18,1.8-14.67,1.8c-10.68,0-14.9-0.7-18.02-2.97
			c-1.56-1.17-2.65-3.66-2.65-6.31c0-2.19,0.24-4.06,1.09-7.96h13.26c-0.39,1.64-0.46,2.26-0.46,3.12c0,1.09,0.46,2.03,1.24,2.5
			c1.33,0.7,1.56,0.7,7.65,0.7c4.29,0,4.76-0.08,6.01-0.7c1.95-1.02,3.19-3.44,3.19-6.24c0-2.19-1.09-2.81-5.77-3.12
			c-8.5-0.55-12.56-0.94-15.13-1.57c-4.45-1.17-6.48-3.74-6.48-8.18c0-6.17,2.58-14.05,5.54-17.09c3.59-3.74,8.9-4.99,20.75-4.99
			c9.44,0,13.11,0.7,15.84,2.89c1.56,1.24,2.57,3.82,2.57,6.55C1396.06,847.5,1395.75,849.3,1394.97,852.57z M1444.42,852.57h-13.26
			c0.39-1.56,0.47-2.18,0.47-2.96c0-2.34-1.56-3.04-6.63-3.04c-4.92,0-6.95,0.47-8.12,1.95c-0.93,1.09-1.55,3.12-1.55,4.91
			c0,2.26,0.7,2.66,6.16,2.97c12.48,0.93,12.56,0.93,15.68,1.95c3.66,1.25,5.53,3.82,5.53,7.64c0,1.95-0.78,6.4-1.79,9.75
			c-1.79,6.24-4.29,9.28-9.36,11.23c-3.43,1.33-7.18,1.8-14.67,1.8c-10.68,0-14.89-0.7-18.01-2.97c-1.56-1.17-2.66-3.66-2.66-6.31
			c0-2.19,0.24-4.06,1.1-7.96h13.26c-0.39,1.64-0.47,2.26-0.47,3.12c0,1.09,0.47,2.03,1.25,2.5c1.32,0.7,1.56,0.7,7.64,0.7
			c4.29,0,4.76-0.08,6.01-0.7c1.95-1.02,3.2-3.44,3.2-6.24c0-2.19-1.1-2.81-5.78-3.12c-8.5-0.55-12.56-0.94-15.13-1.57
			c-4.45-1.17-6.47-3.74-6.47-8.18c0-6.17,2.57-14.05,5.53-17.09c3.59-3.74,8.9-4.99,20.75-4.99c9.44,0,13.11,0.7,15.84,2.89
			c1.56,1.24,2.57,3.82,2.57,6.55C1445.51,847.5,1445.2,849.3,1444.42,852.57z M1085,869.35h12.95l-1.72-22.63L1085,869.35z
			 M1014.02,869.35h12.95l-1.72-22.63L1014.02,869.35z M1025.25,846.72l-11.23,22.63h12.95L1025.25,846.72z M1096.23,846.72
			L1085,869.35h12.95L1096.23,846.72z M1096.23,846.72L1085,869.35h12.95L1096.23,846.72z M1025.25,846.72l-11.23,22.63h12.95
			L1025.25,846.72z M1025.25,846.72l-11.23,22.63h12.95L1025.25,846.72z M1096.23,846.72L1085,869.35h12.95L1096.23,846.72z
			 M1096.23,846.72L1085,869.35h12.95L1096.23,846.72z M1025.25,846.72l-11.23,22.63h12.95L1025.25,846.72z M1025.25,846.72
			l-11.23,22.63h12.95L1025.25,846.72z M1096.23,846.72L1085,869.35h12.95L1096.23,846.72z M1096.23,846.72L1085,869.35h12.95
			L1096.23,846.72z M1025.25,846.72l-11.23,22.63h12.95L1025.25,846.72z M1025.25,846.72l-11.23,22.63h12.95L1025.25,846.72z
			 M1025.25,846.72l-11.23,22.63h12.95L1025.25,846.72z"/>
	</g>
	<g>
		<g>
			<path fill="#161616" d="M834.93,836.35l0.09,0.29l0.15-0.29H834.93z"/>
		</g>
		<g>
			<path fill="#161616" d="M834.93,836.35l0.09,0.29l0.15-0.29H834.93z"/>
		</g>
	</g>
</g>
</svg>

